<svg width="353" height="50" viewBox="0 0 353 50" fill="none" xmlns="http://www.w3.org/2000/svg">
<path d="M15.704 4.91999C17.784 4.91999 19.624 5.22399 21.224 5.83199C22.856 6.43999 24.392 7.35199 25.832 8.56799L22.088 13.032C21.096 12.264 20.12 11.688 19.16 11.304C18.2 10.92 17.176 10.728 16.088 10.728C13.848 10.728 12.072 11.672 10.76 13.56C9.47999 15.448 8.83998 18.36 8.83998 22.296C8.83998 26.168 9.47999 29.048 10.76 30.936C12.072 32.792 13.88 33.72 16.184 33.72C17.4 33.72 18.504 33.496 19.496 33.048C20.488 32.568 21.56 31.896 22.712 31.032L26.216 35.544C24.968 36.792 23.448 37.816 21.656 38.616C19.896 39.416 17.944 39.816 15.8 39.816C12.728 39.816 10.056 39.144 7.78399 37.8C5.51198 36.456 3.73598 34.472 2.45598 31.848C1.20798 29.192 0.583984 26.008 0.583984 22.296C0.583984 18.68 1.22398 15.56 2.50398 12.936C3.81598 10.312 5.60798 8.32799 7.87998 6.98399C10.184 5.60799 12.792 4.91999 15.704 4.91999Z" fill="#0F1D7C"/>
<path d="M44.0446 12.696C46.2526 12.696 47.9806 13.368 49.2286 14.712C50.4766 16.056 51.1006 17.944 51.1006 20.376V39H43.5166V21.672C43.5166 20.392 43.3086 19.512 42.8926 19.032C42.4766 18.52 41.8846 18.264 41.1166 18.264C39.5806 18.264 38.1086 19.352 36.7006 21.528V39H29.1166V3.38399L36.7006 2.61599V16.248C37.7566 15.064 38.8766 14.184 40.0606 13.608C41.2446 13 42.5726 12.696 44.0446 12.696Z" fill="#0F1D7C"/>
<path d="M70.6437 12.792C71.5717 12.792 72.4197 12.904 73.1877 13.128L71.9877 20.472C71.0277 20.248 70.2597 20.136 69.6837 20.136C68.1797 20.136 67.0277 20.664 66.2277 21.72C65.4597 22.744 64.8517 24.296 64.4037 26.376V39H56.8197V13.512H63.4437L64.0677 18.456C64.6437 16.696 65.5077 15.32 66.6597 14.328C67.8437 13.304 69.1717 12.792 70.6437 12.792Z" fill="#0F1D7C"/>
<path d="M83.6694 13.512V39H76.0854V13.512H83.6694ZM79.8294 0.071991C81.1414 0.071991 82.2134 0.487991 83.0454 1.31999C83.9094 2.11999 84.3414 3.14399 84.3414 4.39199C84.3414 5.63999 83.9094 6.67999 83.0454 7.51199C82.2134 8.31199 81.1414 8.71199 79.8294 8.71199C78.5174 8.71199 77.4454 8.31199 76.6134 7.51199C75.7814 6.67999 75.3654 5.63999 75.3654 4.39199C75.3654 3.14399 75.7814 2.11999 76.6134 1.31999C77.4454 0.487991 78.5174 0.071991 79.8294 0.071991Z" fill="#0F1D7C"/>
<path d="M98.6082 12.696C100.432 12.696 102.144 12.968 103.744 13.512C105.344 14.056 106.752 14.824 107.968 15.816L105.184 20.088C103.104 18.776 101.008 18.12 98.8962 18.12C97.9042 18.12 97.1362 18.296 96.5922 18.648C96.0802 18.968 95.8242 19.432 95.8242 20.04C95.8242 20.52 95.9362 20.92 96.1602 21.24C96.4162 21.528 96.9122 21.832 97.6482 22.152C98.3842 22.472 99.5202 22.856 101.056 23.304C103.712 24.072 105.68 25.08 106.96 26.328C108.272 27.544 108.928 29.24 108.928 31.416C108.928 33.144 108.432 34.648 107.44 35.928C106.448 37.176 105.088 38.136 103.36 38.808C101.632 39.48 99.7122 39.816 97.6002 39.816C95.4562 39.816 93.4562 39.48 91.6002 38.808C89.7762 38.136 88.2242 37.208 86.9442 36.024L90.6402 31.896C92.7842 33.56 95.0402 34.392 97.4082 34.392C98.5602 34.392 99.4562 34.184 100.096 33.768C100.768 33.352 101.104 32.76 101.104 31.992C101.104 31.384 100.976 30.904 100.72 30.552C100.464 30.2 99.9682 29.88 99.2322 29.592C98.4962 29.272 97.3282 28.888 95.7282 28.44C93.2002 27.704 91.3122 26.68 90.0642 25.368C88.8162 24.056 88.1922 22.424 88.1922 20.472C88.1922 19 88.6082 17.688 89.4402 16.536C90.3042 15.352 91.5202 14.424 93.0882 13.752C94.6882 13.048 96.5282 12.696 98.6082 12.696Z" fill="#0F1D7C"/>
<path d="M128.819 37.8C127.891 38.44 126.803 38.936 125.555 39.288C124.339 39.64 123.123 39.816 121.907 39.816C116.339 39.784 113.555 36.712 113.555 30.6V18.792H109.955V13.512H113.555V7.99199L121.139 7.12799V13.512H126.995L126.179 18.792H121.139V30.504C121.139 31.688 121.331 32.536 121.715 33.048C122.099 33.56 122.707 33.816 123.539 33.816C124.403 33.816 125.315 33.544 126.275 33L128.819 37.8Z" fill="#0F1D7C"/>
<path d="M138.935 13.512V39H131.351V13.512H138.935ZM135.095 0.071991C136.407 0.071991 137.479 0.487991 138.311 1.31999C139.175 2.11999 139.607 3.14399 139.607 4.39199C139.607 5.63999 139.175 6.67999 138.311 7.51199C137.479 8.31199 136.407 8.71199 135.095 8.71199C133.783 8.71199 132.711 8.31199 131.879 7.51199C131.047 6.67999 130.631 5.63999 130.631 4.39199C130.631 3.14399 131.047 2.11999 131.879 1.31999C132.711 0.487991 133.783 0.071991 135.095 0.071991Z" fill="#0F1D7C"/>
<path d="M165.154 31.608C165.154 32.568 165.282 33.272 165.538 33.72C165.826 34.168 166.274 34.504 166.882 34.728L165.298 39.672C163.73 39.544 162.45 39.208 161.458 38.664C160.466 38.088 159.698 37.192 159.154 35.976C157.49 38.536 154.93 39.816 151.474 39.816C148.946 39.816 146.93 39.08 145.426 37.608C143.922 36.136 143.17 34.216 143.17 31.848C143.17 29.064 144.194 26.936 146.242 25.464C148.29 23.992 151.25 23.256 155.122 23.256H157.714V22.152C157.714 20.648 157.394 19.624 156.754 19.08C156.114 18.504 154.994 18.216 153.394 18.216C152.562 18.216 151.554 18.344 150.37 18.6C149.186 18.824 147.97 19.144 146.722 19.56L144.994 14.568C146.594 13.96 148.226 13.496 149.89 13.176C151.586 12.856 153.154 12.696 154.594 12.696C158.242 12.696 160.914 13.448 162.61 14.952C164.306 16.456 165.154 18.712 165.154 21.72V31.608ZM153.682 34.392C155.41 34.392 156.754 33.576 157.714 31.944V27.432H155.842C154.114 27.432 152.818 27.736 151.954 28.344C151.122 28.952 150.706 29.896 150.706 31.176C150.706 32.2 150.962 33 151.474 33.576C152.018 34.12 152.754 34.392 153.682 34.392Z" fill="#0F1D7C"/>
<path d="M186.123 12.696C188.331 12.696 190.059 13.368 191.307 14.712C192.555 16.056 193.179 17.944 193.179 20.376V39H185.595V21.672C185.595 20.392 185.387 19.512 184.971 19.032C184.587 18.52 183.995 18.264 183.195 18.264C181.659 18.264 180.187 19.368 178.779 21.576V39H171.195V13.512H177.819L178.347 16.536C179.435 15.256 180.603 14.296 181.851 13.656C183.131 13.016 184.555 12.696 186.123 12.696Z" fill="#0F1D7C"/>
<path d="M233.184 5.73599L232.416 11.784H224.208V39H216.336V11.784H207.744V5.73599H233.184Z" fill="#0F1D7C"/>
<path d="M251.138 12.696C253.346 12.696 255.074 13.368 256.322 14.712C257.57 16.056 258.194 17.944 258.194 20.376V39H250.61V21.672C250.61 20.392 250.402 19.512 249.986 19.032C249.57 18.52 248.978 18.264 248.21 18.264C246.674 18.264 245.202 19.352 243.794 21.528V39H236.21V3.38399L243.794 2.61599V16.248C244.85 15.064 245.97 14.184 247.154 13.608C248.338 13 249.666 12.696 251.138 12.696Z" fill="#0F1D7C"/>
<path d="M271.497 13.512V39H263.913V13.512H271.497ZM267.657 0.071991C268.969 0.071991 270.041 0.487991 270.873 1.31999C271.737 2.11999 272.169 3.14399 272.169 4.39199C272.169 5.63999 271.737 6.67999 270.873 7.51199C270.041 8.31199 268.969 8.71199 267.657 8.71199C266.345 8.71199 265.273 8.31199 264.441 7.51199C263.609 6.67999 263.193 5.63999 263.193 4.39199C263.193 3.14399 263.609 2.11999 264.441 1.31999C265.273 0.487991 266.345 0.071991 267.657 0.071991Z" fill="#0F1D7C"/>
<path d="M297.716 31.608C297.716 32.568 297.844 33.272 298.1 33.72C298.388 34.168 298.836 34.504 299.444 34.728L297.86 39.672C296.292 39.544 295.012 39.208 294.02 38.664C293.028 38.088 292.26 37.192 291.716 35.976C290.052 38.536 287.492 39.816 284.036 39.816C281.508 39.816 279.492 39.08 277.988 37.608C276.484 36.136 275.732 34.216 275.732 31.848C275.732 29.064 276.756 26.936 278.804 25.464C280.852 23.992 283.812 23.256 287.684 23.256H290.276V22.152C290.276 20.648 289.956 19.624 289.316 19.08C288.676 18.504 287.556 18.216 285.956 18.216C285.124 18.216 284.116 18.344 282.932 18.6C281.748 18.824 280.532 19.144 279.284 19.56L277.556 14.568C279.156 13.96 280.788 13.496 282.452 13.176C284.148 12.856 285.716 12.696 287.156 12.696C290.804 12.696 293.476 13.448 295.172 14.952C296.868 16.456 297.716 18.712 297.716 21.72V31.608ZM286.244 34.392C287.972 34.392 289.316 33.576 290.276 31.944V27.432H288.404C286.676 27.432 285.38 27.736 284.516 28.344C283.684 28.952 283.268 29.896 283.268 31.176C283.268 32.2 283.524 33 284.036 33.576C284.58 34.12 285.316 34.392 286.244 34.392Z" fill="#0F1D7C"/>
<path d="M326.76 15C325.096 15.672 322.648 16.008 319.416 16.008C321.08 16.712 322.296 17.576 323.064 18.6C323.832 19.624 324.216 20.952 324.216 22.584C324.216 24.216 323.784 25.688 322.92 27C322.056 28.28 320.808 29.288 319.176 30.024C317.576 30.76 315.688 31.128 313.512 31.128C312.488 31.128 311.512 31.032 310.584 30.84C310.328 30.968 310.12 31.176 309.96 31.464C309.832 31.72 309.768 31.992 309.768 32.28C309.768 32.76 309.944 33.144 310.296 33.432C310.68 33.688 311.432 33.816 312.552 33.816H316.392C318.344 33.816 320.056 34.136 321.528 34.776C323 35.416 324.136 36.296 324.936 37.416C325.736 38.536 326.136 39.8 326.136 41.208C326.136 43.864 324.984 45.928 322.68 47.4C320.408 48.904 317.112 49.656 312.792 49.656C309.688 49.656 307.24 49.32 305.448 48.648C303.656 48.008 302.392 47.096 301.656 45.912C300.952 44.728 300.6 43.24 300.6 41.448H307.416C307.416 42.216 307.56 42.824 307.848 43.272C308.168 43.72 308.728 44.056 309.528 44.28C310.328 44.504 311.48 44.616 312.984 44.616C315.064 44.616 316.504 44.36 317.304 43.848C318.104 43.368 318.504 42.664 318.504 41.736C318.504 40.968 318.2 40.36 317.592 39.912C316.984 39.464 316.072 39.24 314.856 39.24H311.16C308.536 39.24 306.568 38.776 305.256 37.848C303.976 36.888 303.336 35.672 303.336 34.2C303.336 33.272 303.608 32.376 304.152 31.512C304.696 30.616 305.432 29.88 306.36 29.304C304.76 28.44 303.592 27.432 302.856 26.28C302.152 25.096 301.8 23.672 301.8 22.008C301.8 19.16 302.824 16.904 304.872 15.24C306.92 13.544 309.624 12.696 312.984 12.696C315.544 12.76 317.704 12.504 319.464 11.928C321.256 11.352 323.096 10.504 324.984 9.38399L326.76 15ZM313.176 17.688C311.992 17.688 311.048 18.072 310.344 18.84C309.672 19.576 309.336 20.6 309.336 21.912C309.336 23.288 309.672 24.36 310.344 25.128C311.048 25.864 311.992 26.232 313.176 26.232C314.424 26.232 315.368 25.864 316.008 25.128C316.68 24.392 317.016 23.288 317.016 21.816C317.016 19.064 315.736 17.688 313.176 17.688Z" fill="#0F1D7C"/>
<path d="M339.688 12.696C343.592 12.696 346.648 13.896 348.856 16.296C351.064 18.664 352.168 21.992 352.168 26.28C352.168 29 351.656 31.384 350.632 33.432C349.64 35.448 348.2 37.016 346.312 38.136C344.456 39.256 342.248 39.816 339.688 39.816C335.816 39.816 332.76 38.632 330.52 36.264C328.312 33.864 327.208 30.52 327.208 26.232C327.208 23.512 327.704 21.144 328.696 19.128C329.72 17.08 331.16 15.496 333.016 14.376C334.904 13.256 337.128 12.696 339.688 12.696ZM339.688 18.264C338.152 18.264 337 18.92 336.232 20.232C335.464 21.512 335.08 23.512 335.08 26.232C335.08 29.016 335.448 31.048 336.184 32.328C336.952 33.608 338.12 34.248 339.688 34.248C341.224 34.248 342.376 33.608 343.144 32.328C343.912 31.016 344.296 29 344.296 26.28C344.296 23.496 343.912 21.464 343.144 20.184C342.408 18.904 341.256 18.264 339.688 18.264Z" fill="#0F1D7C"/>
</svg>
